<?xml version="1.0" encoding="UTF-8"?><svg id="Layer_1" xmlns="http://www.w3.org/2000/svg" viewBox="0 0 50 50"><defs><style>.cls-1{fill:#11182a;}.cls-1,.cls-2{stroke-width:0px;}.cls-2{fill:#fff;}</style></defs><circle class="cls-1" cx="25" cy="25" r="25"/><g id="CXHf1q"><path class="cls-2" d="m24.59,20.55c-1.66.42-2.79.74-4.42,1.16-.39.11-.42.13-.76-.26-.39-.45-.68-.74-1.24-1-1.66-.82-3.26-.58-4.76.39-1.79,1.16-2.71,2.87-2.68,5,.03,2.1,1.47,3.84,3.55,4.13,1.79.24,3.29-.39,4.47-1.74.24-.29.45-.61.71-.97h-5.08c-.55,0-.68-.34-.5-.79.34-.82.97-2.18,1.34-2.87.08-.16.26-.42.66-.42h9.58c-.05.71-.05,1.42-.16,2.13-.29,1.89-1,3.63-2.16,5.16-1.89,2.5-4.37,4.05-7.5,4.47-2.58.34-4.97-.16-7.08-1.74-1.95-1.47-3.05-3.42-3.34-5.84-.34-2.87.5-5.45,2.24-7.71,1.87-2.45,4.34-4,7.37-4.55,2.47-.45,4.84-.16,6.97,1.29,1.39.92,2.39,2.18,3.05,3.71.16.24.05.37-.26.45Z"/><path class="cls-2" d="m33.3,35.09c-2.39-.05-4.58-.74-6.42-2.32-1.55-1.34-2.53-3.05-2.84-5.08-.47-2.97.34-5.6,2.13-7.95,1.92-2.53,4.24-3.84,7.37-4.39,2.68-.47,5.21-.21,7.5,1.34,2.08,1.42,3.37,3.34,3.71,5.87.45,3.55-.58,6.45-3.03,8.92-1.74,1.76-3.87,2.87-6.31,3.37-.71.13-1.42.16-2.1.24Zm6.26-10.63c-.03-.34-.03-.61-.08-.87-.47-2.6-2.87-4.08-5.37-3.5-2.45.55-4.03,2.1-4.6,4.58-.47,2.05.53,4.13,2.42,4.97,1.45.63,2.89.55,4.29-.16,2.08-1.08,3.21-2.76,3.34-5.02Z"/></g></svg>