<?xml version="1.0" encoding="UTF-8"?><svg xmlns="http://www.w3.org/2000/svg" xmlns:xlink="http://www.w3.org/1999/xlink" viewBox="0 0 50 50"><defs><style>.cls-1{mask:url(#mask);}.cls-2{fill:url(#linear-gradient);}.cls-2,.cls-3,.cls-4,.cls-5,.cls-6{stroke-width:0px;}.cls-7{mask:url(#mask-3-3);}.cls-8{mix-blend-mode:lighten;opacity:.91;}.cls-3{fill:url(#linear-gradient-2);}.cls-4{fill:url(#linear-gradient-3);}.cls-9{isolation:isolate;}.cls-10{mask:url(#mask-2);}.cls-11{mask:url(#mask-1);}.cls-5{fill:#11182a;}.cls-6{fill:#fff;}</style><linearGradient id="linear-gradient" x1="-113.94" y1="-6.42" x2="-113.99" y2="-6.5" gradientTransform="translate(29199.78 -1858.37) scale(256 -291.7)" gradientUnits="userSpaceOnUse"><stop offset="0" stop-color="#41873f"/><stop offset=".33" stop-color="#418b3d"/><stop offset=".64" stop-color="#409636"/><stop offset=".93" stop-color="#46a131"/><stop offset="1" stop-color="#49a22f"/></linearGradient><mask id="mask" x="10.17" y="8.11" width="29.63" height="33.8" maskUnits="userSpaceOnUse"><g id="mask-3"><path id="path-2" class="cls-6" d="m25.79,8.32c-.5-.28-1.1-.28-1.6,0l-13.23,7.63c-.5.28-.79.82-.79,1.38v15.3c0,.57.31,1.1.79,1.38l13.23,7.63c.5.28,1.1.28,1.6,0l13.23-7.63c.5-.28.79-.82.79-1.38v-15.3c0-.57-.31-1.1-.79-1.38l-13.23-7.63h0Z"/></g></mask><linearGradient id="linear-gradient-2" x1="-113.97" y1="-6.46" x2="-113.83" y2="-6.38" gradientTransform="translate(28518.33 -1857.12) scale(250.03 -291.57)" gradientUnits="userSpaceOnUse"><stop offset=".14" stop-color="#41873f"/><stop offset=".4" stop-color="#55a145"/><stop offset=".71" stop-color="#69af4a"/><stop offset=".91" stop-color="#9cb191"/></linearGradient><mask id="mask-1" x="10.17" y="8.11" width="29.69" height="33.77" maskUnits="userSpaceOnUse"><g id="mask-6"><path id="path-5" class="cls-6" d="m25.79,8.32c-.5-.28-1.1-.28-1.6,0l-13.23,7.63c-.5.28-.79.82-.79,1.38v15.3c0,.57.31,1.1.79,1.38l13.23,7.63c.5.28,1.1.28,1.6,0l13.23-7.63c.5-.28.79-.82.79-1.38v-15.3c0-.57-.31-1.1-.79-1.38l-13.23-7.63h0Z"/></g></mask><linearGradient id="linear-gradient-3" x1="-114.04" y1="-6.46" x2="-113.92" y2="-6.46" gradientTransform="translate(28491.58 -1859.1) scale(249.76 -291.81)" gradientUnits="userSpaceOnUse"><stop offset=".09" stop-color="#9cb191"/><stop offset=".29" stop-color="#69af4a"/><stop offset=".6" stop-color="#55a145"/><stop offset=".86" stop-color="#41873f"/></linearGradient><mask id="mask-2" x="10.14" y="8.09" width="29.63" height="33.8" maskUnits="userSpaceOnUse"><g id="mask-3-2"><path id="path-2-2" class="cls-6" d="m25.75,8.31c-.5-.28-1.1-.28-1.6,0l-13.23,7.63c-.5.28-.79.82-.79,1.38v15.3c0,.57.31,1.1.79,1.38l13.23,7.63c.5.28,1.1.28,1.6,0l13.23-7.63c.5-.28.79-.82.79-1.38v-15.3c0-.57-.31-1.1-.79-1.38l-13.23-7.63h0Z"/></g></mask><mask id="mask-3-3" x="10.14" y="8.09" width="29.69" height="33.77" maskUnits="userSpaceOnUse"><g id="mask-6-2"><path id="path-5-2" class="cls-6" d="m25.75,8.31c-.5-.28-1.1-.28-1.6,0l-13.23,7.63c-.5.28-.79.82-.79,1.38v15.3c0,.57.31,1.1.79,1.38l13.23,7.63c.5.28,1.1.28,1.6,0l13.23-7.63c.5-.28.79-.82.79-1.38v-15.3c0-.57-.31-1.1-.79-1.38l-13.23-7.63h0Z"/></g></mask></defs><g class="cls-9"><g id="Layer_1"><circle class="cls-5" cx="25" cy="25" r="25"/><path class="cls-2" d="m25.79,8.32c-.5-.28-1.1-.28-1.6,0l-13.23,7.63c-.5.28-.79.82-.79,1.38v15.3c0,.57.31,1.1.79,1.38l13.23,7.63c.5.28,1.1.28,1.6,0l13.23-7.63c.5-.28.79-.82.79-1.38v-15.3c0-.57-.31-1.1-.79-1.38l-13.23-7.63h0Z"/><g class="cls-1"><path class="cls-3" d="m39.04,15.96l-13.29-7.63c-.13-.06-.28-.13-.41-.16l-14.89,25.51c.13.16.28.28.44.38l13.29,7.63c.38.22.82.28,1.23.16l13.98-25.57c-.09-.13-.22-.22-.35-.31h0Z"/></g><g class="cls-11"><path class="cls-4" d="m39.07,34.02c.38-.22.66-.6.79-1.01l-14.58-24.88c-.38-.06-.79-.03-1.13.19l-13.2,7.6,14.23,25.95c.19-.03.41-.09.6-.19l13.29-7.67h0Z"/></g><g class="cls-8"><path class="cls-6" d="m25.75,8.31c-.5-.28-1.1-.28-1.6,0l-13.23,7.63c-.5.28-.79.82-.79,1.38v15.3c0,.57.31,1.1.79,1.38l13.23,7.63c.5.28,1.1.28,1.6,0l13.23-7.63c.5-.28.79-.82.79-1.38v-15.3c0-.57-.31-1.1-.79-1.38l-13.23-7.63h0Z"/><g class="cls-10"><path class="cls-6" d="m39.01,15.94l-13.29-7.63c-.13-.06-.28-.13-.41-.16l-14.89,25.51c.13.16.28.28.44.38l13.29,7.63c.38.22.82.28,1.23.16l13.98-25.57c-.09-.13-.22-.22-.35-.31h0Z"/></g><g class="cls-7"><path class="cls-6" d="m39.04,34.01c.38-.22.66-.6.79-1.01l-14.58-24.88c-.38-.06-.79-.03-1.13.19l-13.2,7.6,14.23,25.95c.19-.03.41-.09.6-.19l13.29-7.67h0Z"/></g></g></g></g></svg>