<?xml version="1.0" encoding="UTF-8"?><svg id="Layer_1" xmlns="http://www.w3.org/2000/svg" viewBox="0 0 50 50"><defs><style>.cls-1{fill:#11182a;}.cls-1,.cls-2{stroke-width:0px;}.cls-2{fill:#fff;}</style></defs><circle class="cls-1" cx="25" cy="25" r="25"/><path class="cls-2" d="m38.57,29.41c.08-.15.08-.4.16-.55,1.95-7.64-2.81-16.69-10.69-21.45,3.51,4.68,4.99,10.45,3.66,15.44-.12.45-.28.9-.47,1.33-.16-.08-.4-.24-.7-.4,0,0-7.88-4.91-16.46-13.49-.23-.23,4.61,6.87,9.98,12.56-2.57-1.4-9.67-6.63-14.2-10.76.58.93,1.23,1.82,1.95,2.65,3.74,4.76,8.65,10.69,14.58,15.21-4.13,2.49-9.98,2.73-15.83,0-1.42-.68-2.78-1.49-4.05-2.41,2.61,4.15,6.42,7.41,10.92,9.36,5.53,2.34,11,2.18,15.05.08h.08c.17-.08.33-.18.47-.31,1.95-1.01,5.85-2.03,7.96,2.03.47.86,1.56-4.45-2.42-9.29h0Z"/></svg>